<svg width="150" height="150" viewBox="0 0 150 150" fill="none" xmlns="http://www.w3.org/2000/svg">
    <g id="delivery-illustration">
        <g id="delivery-person">
            <path d="M76.0382 62.3133C56.6683 42.9458 35.429 32.7823 28.5967 39.6121C27.847 40.3974 27.2953 41.3499 26.9873 42.391L26.8774 42.2811L20.3524 69.0207L13.8549 95.6803L6.15294 127.248L1.27734 147.24L30.1436 136.317L66.8593 122.425L96.1504 111.342L96.1154 111.307C97.0959 110.994 97.9931 110.464 98.7394 109.755C105.572 102.922 95.4082 81.6832 76.0382 62.3133Z" fill="url(#gradient-main)"/>
            <path d="M76.0389 62.3053C56.6696 42.936 35.4298 32.7722 28.5983 39.6036C21.7669 46.4351 31.9308 67.6749 51.3 87.0441C70.6692 106.413 91.9091 116.577 98.7405 109.746C105.572 102.914 95.4081 81.6745 76.0389 62.3053Z" fill="#D1E3EE"/>
        </g>

        <g id="decorative-elements">
            <circle id="circle1" cx="136.225" cy="97.4619" r="5" fill="#D5557E"/>
            <circle id="circle2" cx="76.2481" cy="27.4893" r="5" fill="#DD95C1"/>
            <circle id="circle3" cx="53.7598" cy="4.99805" r="5" fill="#7FCCCB"/>
        </g>

        <defs>
            <linearGradient id="gradient-main" x1="1.27734" y1="147.24" x2="98.7394" y2="62.3133">
                <stop offset="0%" stop-color="#DD1C4B"/>
                <stop offset="100%" stop-color="#B21D48"/>
            </linearGradient>
            
            <filter id="shadow" x="-20%" y="-20%" width="140%" height="140%">
                <feGaussianBlur in="SourceAlpha" stdDeviation="2"/>
                <feOffset dx="2" dy="2" result="offsetblur"/>
                <feComponentTransfer>
                    <feFuncA type="linear" slope="0.3"/>
                </feComponentTransfer>
                <feMerge>
                    <feMergeNode/>
                    <feMergeNode in="SourceGraphic"/>
                </feMerge>
            </filter>
        </defs>
    </g>
</svg>
